<mxfile host="Electron" agent="Mozilla/5.0 (Windows NT 10.0; Win64; x64) AppleWebKit/537.36 (KHTML, like Gecko) draw.io/24.7.5 Chrome/126.0.6478.183 Electron/31.3.0 Safari/537.36" version="24.7.5">
  <diagram name="Page-1" id="u-IQGaD3TP1s_vF2WxLn">
    <mxGraphModel dx="1114" dy="656" grid="1" gridSize="10" guides="1" tooltips="1" connect="1" arrows="1" fold="1" page="1" pageScale="1" pageWidth="827" pageHeight="1169" math="0" shadow="0">
      <root>
        <mxCell id="0" />
        <mxCell id="1" parent="0" />
        <mxCell id="w-GGHJCV6Kn5iyqk-o88-1" value="users" style="rounded=0;whiteSpace=wrap;html=1;" parent="1" vertex="1">
          <mxGeometry x="490" y="340" width="120" height="60" as="geometry" />
        </mxCell>
        <mxCell id="w-GGHJCV6Kn5iyqk-o88-3" value="line_first" style="rounded=0;whiteSpace=wrap;html=1;" parent="1" vertex="1">
          <mxGeometry x="580" y="480" width="120" height="60" as="geometry" />
        </mxCell>
        <mxCell id="w-GGHJCV6Kn5iyqk-o88-4" value="" style="endArrow=none;html=1;rounded=0;shape=link;" parent="1" source="w-GGHJCV6Kn5iyqk-o88-1" target="w-GGHJCV6Kn5iyqk-o88-3" edge="1">
          <mxGeometry width="50" height="50" relative="1" as="geometry">
            <mxPoint x="390" y="360" as="sourcePoint" />
            <mxPoint x="440" y="310" as="targetPoint" />
          </mxGeometry>
        </mxCell>
        <mxCell id="w-GGHJCV6Kn5iyqk-o88-5" value="line_second" style="rounded=0;whiteSpace=wrap;html=1;" parent="1" vertex="1">
          <mxGeometry x="650" y="340" width="120" height="60" as="geometry" />
        </mxCell>
        <mxCell id="w-GGHJCV6Kn5iyqk-o88-6" value="line_third" style="rounded=0;whiteSpace=wrap;html=1;" parent="1" vertex="1">
          <mxGeometry x="720" y="480" width="120" height="60" as="geometry" />
        </mxCell>
        <mxCell id="w-GGHJCV6Kn5iyqk-o88-7" value="" style="shape=mxgraph.arrows2.wedgeArrow;html=1;bendable=0;startWidth=5;fillColor=strokeColor;defaultFillColor=invert;defaultGradientColor=invert;rounded=0;" parent="1" source="w-GGHJCV6Kn5iyqk-o88-5" target="w-GGHJCV6Kn5iyqk-o88-3" edge="1">
          <mxGeometry width="100" height="100" relative="1" as="geometry">
            <mxPoint x="360" y="390" as="sourcePoint" />
            <mxPoint x="460" y="290" as="targetPoint" />
          </mxGeometry>
        </mxCell>
        <mxCell id="w-GGHJCV6Kn5iyqk-o88-8" value="" style="shape=mxgraph.arrows2.wedgeArrow;html=1;bendable=0;startWidth=5;fillColor=strokeColor;defaultFillColor=invert;defaultGradientColor=invert;rounded=0;" parent="1" source="w-GGHJCV6Kn5iyqk-o88-5" target="w-GGHJCV6Kn5iyqk-o88-6" edge="1">
          <mxGeometry width="100" height="100" relative="1" as="geometry">
            <mxPoint x="360" y="390" as="sourcePoint" />
            <mxPoint x="460" y="290" as="targetPoint" />
          </mxGeometry>
        </mxCell>
        <mxCell id="w-GGHJCV6Kn5iyqk-o88-9" value="line_forth" style="rounded=0;whiteSpace=wrap;html=1;" parent="1" vertex="1">
          <mxGeometry x="790" y="340" width="120" height="60" as="geometry" />
        </mxCell>
        <mxCell id="w-GGHJCV6Kn5iyqk-o88-10" value="" style="endArrow=none;html=1;rounded=0;" parent="1" source="w-GGHJCV6Kn5iyqk-o88-6" target="w-GGHJCV6Kn5iyqk-o88-9" edge="1">
          <mxGeometry width="50" height="50" relative="1" as="geometry">
            <mxPoint x="790" y="360" as="sourcePoint" />
            <mxPoint x="840" y="310" as="targetPoint" />
          </mxGeometry>
        </mxCell>
        <mxCell id="_UoSvwOeI0Yq8mJi_Utt-1" value="user_role" style="rounded=0;whiteSpace=wrap;html=1;" vertex="1" parent="1">
          <mxGeometry x="490" y="240" width="120" height="60" as="geometry" />
        </mxCell>
        <mxCell id="_UoSvwOeI0Yq8mJi_Utt-3" value="role" style="rounded=0;whiteSpace=wrap;html=1;" vertex="1" parent="1">
          <mxGeometry x="490" y="140" width="120" height="60" as="geometry" />
        </mxCell>
        <mxCell id="_UoSvwOeI0Yq8mJi_Utt-5" value="" style="shape=mxgraph.arrows2.wedgeArrow;html=1;bendable=0;startWidth=5;fillColor=strokeColor;defaultFillColor=invert;defaultGradientColor=invert;rounded=0;" edge="1" parent="1" source="_UoSvwOeI0Yq8mJi_Utt-1" target="_UoSvwOeI0Yq8mJi_Utt-3">
          <mxGeometry width="100" height="100" relative="1" as="geometry">
            <mxPoint x="520" y="390" as="sourcePoint" />
            <mxPoint x="730" y="160" as="targetPoint" />
          </mxGeometry>
        </mxCell>
        <mxCell id="_UoSvwOeI0Yq8mJi_Utt-6" value="" style="shape=mxgraph.arrows2.wedgeArrow;html=1;bendable=0;startWidth=5;fillColor=strokeColor;defaultFillColor=invert;defaultGradientColor=invert;rounded=0;" edge="1" parent="1" source="_UoSvwOeI0Yq8mJi_Utt-1" target="w-GGHJCV6Kn5iyqk-o88-1">
          <mxGeometry width="100" height="100" relative="1" as="geometry">
            <mxPoint x="520" y="390" as="sourcePoint" />
            <mxPoint x="620" y="290" as="targetPoint" />
          </mxGeometry>
        </mxCell>
      </root>
    </mxGraphModel>
  </diagram>
</mxfile>
